PathFileType	4	(X/Y/Z)	Kaydara	
DataRate	CameraRate	NumFrames	NumMarkers	Units	OrigDataRate	OrigDataStartFrame	OrigNumFrames	
120.00	120.00	4	72	mm	120.00	1	268	
Frame#	Time	Hips			RightUpLeg			RightLeg			RightFoot			RightFoot_End			LeftUpLeg			LeftLeg			LeftFoot			LeftFoot_End			Spine			Spine1			Spine2			Spine3			Neck			Head			Head_End			RightShoulder			RightArm			RightForeArm			RightHand			RightHandThumb1			RightHandThumb2			RightHandThumb3			RightHandThumb3_End			RightInHandIndex			RightHandIndex1			RightHandIndex2			RightHandIndex3			RightHandIndex3_End			RightInHandMiddle			RightHandMiddle1			RightHandMiddle2			RightHandMiddle3			RightHandMiddle3_End			RightInHandRing			RightHandRing1			RightHandRing2			RightHandRing3			RightHandRing3_End			RightInHandPinky			RightHandPinky1			RightHandPinky2			RightHandPinky3			RightHandPinky3_End			LeftShoulder			LeftArm			LeftForeArm			LeftHand			LeftHandThumb1			LeftHandThumb2			LeftHandThumb3			LeftHandThumb3_End			LeftInHandIndex			LeftHandIndex1			LeftHandIndex2			LeftHandIndex3			LeftHandIndex3_End			LeftInHandMiddle			LeftHandMiddle1			LeftHandMiddle2			LeftHandMiddle3			LeftHandMiddle3_End			LeftInHandRing			LeftHandRing1			LeftHandRing2			LeftHandRing3			LeftHandRing3_End			LeftInHandPinky			LeftHandPinky1			LeftHandPinky2			LeftHandPinky3			LeftHandPinky3_End			
		X1	Y1	Z1	X2	Y2	Z2	X3	Y3	Z3	X4	Y4	Z4	X5	Y5	Z5	X6	Y6	Z6	X7	Y7	Z7	X8	Y8	Z8	X9	Y9	Z9	X10	Y10	Z10	X11	Y11	Z11	X12	Y12	Z12	X13	Y13	Z13	X14	Y14	Z14	X15	Y15	Z15	X16	Y16	Z16	X17	Y17	Z17	X18	Y18	Z18	X19	Y19	Z19	X20	Y20	Z20	X21	Y21	Z21	X22	Y22	Z22	X23	Y23	Z23	X24	Y24	Z24	X25	Y25	Z25	X26	Y26	Z26	X27	Y27	Z27	X28	Y28	Z28	X29	Y29	Z29	X30	Y30	Z30	X31	Y31	Z31	X32	Y32	Z32	X33	Y33	Z33	X34	Y34	Z34	X35	Y35	Z35	X36	Y36	Z36	X37	Y37	Z37	X38	Y38	Z38	X39	Y39	Z39	X40	Y40	Z40	X41	Y41	Z41	X42	Y42	Z42	X43	Y43	Z43	X44	Y44	Z44	X45	Y45	Z45	X46	Y46	Z46	X47	Y47	Z47	X48	Y48	Z48	X49	Y49	Z49	X50	Y50	Z50	X51	Y51	Z51	X52	Y52	Z52	X53	Y53	Z53	X54	Y54	Z54	X55	Y55	Z55	X56	Y56	Z56	X57	Y57	Z57	X58	Y58	Z58	X59	Y59	Z59	X60	Y60	Z60	X61	Y61	Z61	X62	Y62	Z62	X63	Y63	Z63	X64	Y64	Z64	X65	Y65	Z65	X66	Y66	Z66	X67	Y67	Z67	X68	Y68	Z68	X69	Y69	Z69	X70	Y70	Z70	X71	Y71	Z71	X72	Y72	Z72	

1	0.0	7446.805	859.65103	-201.189	7500.9165085988025	835.8015279287891	-255.06578742872534	7384.838979358643	447.60642685926325	-343.4194135996145	7419.438101538454	53.86760195429125	-471.2185308490376	7361.706557902551	-36.808901445832504	-328.4944302059542	7402.79158373056	856.9369509956686	-131.58054458353877	7283.3574332441785	459.7398900180317	-77.70133720943753	7220.135204817568	56.38373406387344	23.99155035992547	7243.804786043166	-17.736896432112538	198.0104455447187	7399.31094142383	977.1168572709023	-266.68892972958815	7342.030335377609	1037.6210230197146	-314.9623152755879	7274.063789143781	1091.8663420290522	-363.9376208166385	7200.396477246899	1133.9844624629038	-407.6161986334334	7120.857970623319	1179.2753045215786	-449.94643537593794	7067.373640203233	1249.156820392258	-414.90589119944036	7054.184811464846	1346.0149507255126	-290.1497961202284	7153.605295294838	1155.5528695685598	-459.9892178532413	7173.229817809311	1085.8449210690185	-539.2993235599514	7117.795882273	870.4661055113438	-453.7991458840886	7062.572166385331	635.4051089960514	-384.71151481924426	7049.344512838896	609.8854915208804	-406.170530947925	7024.286596609607	586.4503994679989	-401.81047630864765	7007.535095914194	569.3661675968648	-394.12969246055815	6994.167927568104	554.4701743087098	-383.7533560604129	7051.858113123942	603.8508583651465	-392.86092230301574	7032.782552835591	556.9263937528224	-382.152240494377	7012.979994681988	529.3695689860368	-367.37873190272074	6997.996536432363	519.2993354120632	-358.78962794186407	6983.792242414815	515.7276360974552	-352.08216861451575	7054.112491594248	603.6483764632759	-380.25351949793026	7036.72801853139	557.7686876857601	-362.99133102720015	7015.470670630926	527.8305666626225	-345.232566550836	6997.562196382117	515.74449848615	-334.0841418118503	6982.102044093125	511.86718726248597	-326.3628644280918	7056.259044196551	604.636663961083	-371.6615072598989	7042.738639094435	564.1838250671162	-348.8550881506125	7024.596253190251	538.2974561749104	-331.7290955591827	7007.526876396565	526.7498578215213	-320.1006981206091	6993.08747245265	523.1565230965507	-312.4261791418473	7058.757458335923	607.6558554382041	-361.7393187667422	7048.115732708083	572.1771333928045	-334.84137961209234	7034.248024447665	551.9493905747186	-318.6565563692452	7022.116835666955	543.768927282606	-308.97946404780987	7009.509622093202	540.725322177568	-301.4931895157708	7141.473515361477	1176.4932080438582	-412.0597389343288	7141.384512882773	1171.1951762796443	-305.0731035977781	7175.541302713818	939.8867075339691	-345.60253598192287	7219.574861565539	721.4746554629071	-347.9319658200716	7187.077515940043	703.876354411482	-346.8429940692654	7170.157292093167	687.865370331049	-365.19282715938743	7162.865043124095	675.0348454615528	-378.8468220404169	7160.627738949455	662.9009874894623	-390.97824950343283	7199.617441689479	695.1497988710032	-348.18204755826207	7188.275415617426	653.3963742815209	-359.1661900885265	7183.4672302387535	630.1510583599159	-375.88151719149147	7179.392996395592	623.4979156023171	-389.68753009437796	7175.288895948959	623.2514175460786	-403.41767982725867	7212.3736158007505	692.3086395510561	-350.6112315311626	7208.209883296565	650.0451603631618	-362.63619415781375	7204.686991686925	624.4477037918707	-381.1721664117644	7200.598771532863	616.3095338617053	-397.9707723695972	7196.510271126768	615.9856736486611	-413.06315312870663	7221.671062531831	691.2885428172701	-351.9629477224666	7225.998031327647	652.2974292640047	-363.6667394951686	7224.695964502486	629.8167374909181	-380.1075175377192	7221.691725382839	621.8766439744473	-396.46233436716614	7218.2925564338075	621.529406881165	-410.7246448384272	7232.748722232462	691.9392692758743	-353.8659831605808	7243.528900915924	656.3018127136894	-365.49484528045275	7245.226474428371	638.2057326653054	-379.0538435396055	7244.360704941157	632.368545530936	-391.1736252615223	7242.112455856284	632.0346774034101	-403.91735420772125
2	0.008	7446.805	859.65103	-201.189	7501.516593666514	836.0545536231718	-254.8589178993609	7384.863802201463	447.875770346448	-342.8991423854601	7419.378793261271	53.58706911539759	-469.55136638578426	7361.107296742537	-36.83025956258426	-326.48988062758224	7402.194882113214	856.6764322452866	-131.80161139355323	7282.74857348294	459.45700136328713	-77.99849301857222	7219.719765455095	56.348518252851264	24.387706027698727	7243.405622033945	-17.428206052985814	198.53479347492768	7399.259931509851	977.1339324105071	-266.640280361588	7341.976796489403	1037.6330004389001	-314.9525985322444	7274.018842692946	1091.8821787458119	-363.99046869973165	7200.357407986776	1133.9857084737876	-407.7733176052455	7120.823889857746	1179.2627963466327	-450.2284346224153	7067.430611736941	1249.1387442122689	-415.05142936153396	7054.096287953134	1345.8091298902625	-290.1479144732715	7153.770156898106	1155.7245661157435	-460.2399216183583	7174.236819969575	1086.7589757518745	-539.8114792959814	7119.866291350452	870.8826814268232	-455.73439252407263	7066.248947886897	636.7497298000667	-388.5884859997264	7053.160363471479	611.4523936733382	-410.03731639878737	7028.193942003462	588.2010178166934	-405.9484599599715	7011.516795832689	571.2352260808816	-398.49076159225405	6998.220713829173	556.429844313091	-388.3296787913511	7055.736094980547	605.4087026173702	-396.8327145123466	7036.958805942527	558.7549367554388	-386.4683876221508	7017.303781990042	531.3619070176685	-372.02392870210366	7002.347283248986	521.3667433674163	-363.63387511375765	6988.121619362942	517.8391280369935	-357.08744649244187	7058.00617093728	605.169792204206	-384.3106571727779	7040.921130604581	559.5344376871882	-367.43048002832427	7019.825800624692	529.769334169418	-350.04103004081696	7001.950345539393	517.7710923570042	-339.1376736743605	6986.467050592743	513.94068362786	-331.59498557431573	7060.156940882274	606.1256765673616	-375.7695384507363	7046.91070879829	565.8643879387336	-353.34785577408826	7028.910109772852	540.1225922708288	-336.55364637902215	7011.872885908446	528.6564011373273	-325.16688754491287	6997.411865684127	525.105598807526	-317.66277566342507	7062.645757140216	609.0977776005457	-365.9008810872067	7052.252158538871	573.7666106477185	-339.3868670000624	7038.497678380576	553.6440808973299	-323.4814754978597	7026.389792320602	545.5178901756217	-313.9872877382629	7013.763344050108	542.509023175045	-306.6557946443754	7141.22612260799	1176.3059991020914	-412.2590456804808	7140.3452803245555	1170.2553246374412	-305.3524125840051	7175.230987842918	939.7257341691575	-347.78555659893584	7221.264542573304	722.4586502595679	-350.1687814495839	7188.9551525797215	705.0531590959221	-349.18822660209275	7172.220794554773	689.1612811238565	-367.7202201019938	7165.020455990103	676.4126352246103	-381.51433334630974	7162.827670532992	664.3461238151938	-393.7739165710541	7201.367969495488	696.3511658108141	-350.5839520752022	7190.022326384497	654.87967009674	-361.8731210133429	7185.264135703469	631.7734188194174	-378.80507103961713	7181.280656782177	625.1543657809049	-392.71367666388295	7177.291925596931	624.9007607750721	-406.50710227584716	7214.024699229036	693.4945774656646	-353.03879639485183	7209.803634301013	651.4977539743733	-365.37515105277885	7206.322252686007	626.0490229404186	-384.1499038826039	7202.337265680339	617.9505308278692	-401.0734366487958	7198.371957302525	617.618189283286	-416.23561291084826	7223.251201568112	692.4570149607057	-354.40096099778987	7227.462924339505	653.6915575909176	-366.39319405523497	7226.183804330217	631.3369799021127	-383.04405718548367	7223.272114176671	623.4332916566227	-399.5204182852391	7219.985446620733	623.0771951117697	-413.8488480357902	7234.253337337558	693.0744866257143	-356.306389101567	7244.878636927288	657.6257014762698	-368.2017276260899	7246.574448012939	639.6241353931944	-381.9307582127956	7245.766443028789	633.810370931416	-394.14006746559545	7243.612245730243	633.466852593586	-406.94286955470176
3	0.017	7446.805	859.65103	-201.189	7502.115661164156	836.3116810612976	-254.64545770926674	7384.897098974587	448.1462925845336	-342.36485351303344	7419.323076164123	53.31229211673019	-467.87481935510823	7360.518686166646	-36.84875001292011	-324.47990861846125	7401.598477532313	856.4111701724491	-132.03002629841026	7282.141429118351	459.169731747832	-78.29909281246232	7219.307645664284	56.31407950196203	24.79638265882368	7243.014123022653	-17.11152425099981	199.07269584587897	7399.212140612749	977.1535676976872	-266.5887262023111	7341.929370113452	1037.6509772011216	-314.9383859214389	7273.984282871798	1091.9094597539154	-364.037548865386	7200.332458451359	1134.0033133473014	-407.9244666361304	7120.808090916	1179.2720222077203	-450.50434083841117	7067.5095397669065	1249.1448508132244	-415.1909784646221	7054.031043012332	1345.6272170135746	-290.1402156659456	7153.95277552113	1155.9195766277326	-460.4819765334907	7175.268641936673	1087.7148016405142	-540.3087859581706	7121.99311214143	871.349032929454	-457.67590358871644	7070.004335413663	638.1660424004083	-392.49800332674414	7057.066351912599	613.0978637293888	-413.9373368080445	7032.199548828024	590.0327300239329	-410.1275863157031	7015.601308433821	573.1864957351864	-402.89895405575857	7002.37916076804	558.4721079296594	-392.9585158601877	7059.701470621061	607.0437861642275	-400.83894555865436	7041.231075615685	560.6653396522717	-390.82603700923585	7021.728716856262	533.4374985982388	-376.7185201147712	7006.802122094177	523.5174355312838	-368.53312365688987	6992.557359904473	520.0333658066427	-362.15283868164045	7061.983894359265	606.7664543272641	-388.4034176488942	7045.204885550378	561.3788634193694	-371.9127808376665	7024.276701381719	531.7880179367235	-354.9013944954027	7006.437591816103	519.8775050052658	-344.24993660565707	6990.93352982784	516.0933443134331	-336.89146423993714	7064.136298356299	607.6884248773636	-379.9138229406785	7051.167920344819	567.6204930539827	-357.8840962415042	7033.3130857982	542.0240598710213	-341.42942431587915	7016.310962175552	530.6390268624484	-330.2909604931743	7001.830435560864	527.1300680897596	-322.9625783227936	7066.612263419917	610.6114405417779	-370.09942141059304	7056.468176340541	575.42830833881	-343.9763168503847	7042.829325919791	555.4111601385714	-328.35673556789266	7030.746513367509	547.3388360719166	-319.0503894017992	7018.102481303055	544.363967933551	-311.87843980495944	7140.994527549677	1176.135106526403	-412.45459318940993	7139.316522525891	1169.3199052508726	-305.6427852140653	7174.945814759546	939.596280921315	-349.99189034823934	7222.996313089378	723.5073025126966	-352.4254713624872	7190.878335813926	706.30401837537	-351.5606811027991	7174.335835424466	690.536476562153	-370.27628574906123	7167.231002303982	677.8727161130267	-384.210922872436	7165.08523842098	665.8755137923356	-396.59848254608175	7203.161886154814	697.6255411449565	-353.0121062665734	7191.814219792145	656.4447741839301	-364.61154299737746	7187.109291814172	633.4817321821533	-381.76097762512563	7183.220131433329	626.8980941983117	-395.77126847266703	7179.350752429331	626.6376351292981	-409.62624534338954	7215.717647511806	694.7513943399265	-355.4906511904158	7211.43997974386	653.0286584336513	-368.1424509364015	7208.003470605404	627.7328635643528	-387.15664554034186	7204.125918443682	619.6754985207303	-404.2038763329644	7200.288112646641	619.3348795611465	-419.43389594530345	7224.872062700419	693.694654751698	-356.86177127056874	7228.968127048729	655.1600802425979	-369.14485623071766	7227.714675678138	632.9349558417123	-386.00608885092583	7224.89947640882	625.0688951118354	-402.60265394547855	7221.729310675456	624.7040475998973	-416.99529399667205	7235.797511212513	694.2765049289102	-358.7675195970995	7246.266751622694	659.0197882170163	-370.9303547209281	7247.96265584898	641.1148710114187	-384.8291792756928	7247.215133905926	635.3251599992125	-397.12681298829733	7245.1584419322935	634.9719374972263	-409.9868674176579
4	0.025	7446.805	859.65103	-201.189	7502.7138209009245	836.5730008914401	-254.42529633779515	7384.938900083469	448.4180896830558	-341.816379490883	7419.270923880479	53.043256500844336	-466.188440805671	7359.940600049473	-36.86434079526439	-322.4640269066035	7401.002264114852	856.1410719153249	-132.26590681615804	7281.535901530436	458.87797846252334	-78.6032903473821	7218.898739361138	56.28045215321414	25.217736135331357	7242.630175225046	-16.786700907808616	199.6243445884388	7399.167545010893	977.1757672675544	-266.5342435746454	7341.888033389415	1037.6749638616905	-314.91964773036796	7273.96008715852	1091.9481974484108	-364.0788305760095	7200.321617842696	1134.037300572899	-408.06962499478817	7120.810577356918	1179.3030192786503	-450.77414581739214	7067.610499479932	1249.1751993088005	-415.3244911308833	7053.989126119129	1345.4692473350817	-290.1266369098777	7154.153193385775	1156.1379993209252	-460.7153344091663	7176.3255216713305	1088.7127803243118	-540.7910904887517	7124.17715591751	871.8656653281963	-459.623879982261	7073.839790596876	639.655199672066	-396.4406674672882	7061.0639587348705	614.8231837537605	-417.87112726914717	7036.304962868003	591.9469200770509	-414.3484131336559	7019.790234143827	575.2214269803832	-407.3548582004048	7006.644922257388	560.598467072835	-397.64049378696075	7063.755754352554	608.75739015136	-404.88019267717084	7045.600995583425	562.6590475059168	-395.22580633544027	7026.256521897808	535.5978840423908	-381.4631782717853	7011.3628172381705	525.7529920907754	-373.48807879313597	6997.101253606156	522.3119495466049	-367.27907727956557	7066.04719738384	608.4396250149332	-392.5324182796012	7049.580946846779	563.3033766925755	-376.4389119493903	7028.82513579469	533.8881306564369	-359.81440302106586	7011.025749518758	522.0652957602974	-349.4217161280339	6995.503324348256	518.3267497675836	-342.25311656596426	7068.1986641097055	609.3261536871385	-384.09500523215326	7055.511946360525	569.4535047801892	-362.4645319423387	7037.806942813898	544.0033079087357	-346.3572132909972	7020.842917544148	532.6992271297227	-335.47374456976564	7006.345021556395	529.2314420869727	-328.32644482611767	7070.658534799646	612.198062742226	-374.3356156366519	7060.765464882141	577.1635390967208	-348.61049532528676	7047.244720036038	557.2520028770182	-333.2831598120982	7035.188790280862	549.233168269203	-324.16962790608534	7022.528850189923	546.2915749852157	-317.16201270144984	7140.778678826989	1175.9804940518295	-412.6463973257189	7138.298017087622	1168.3886542923187	-305.9444455756295	7174.685942415092	939.4985791109947	-352.22212947288835	7224.770774763564	724.6215727323766	-354.7024558866211	7192.847779865994	707.629999941717	-353.9607578894216	7176.503206429703	691.9920905260899	-372.8614186461813	7169.497513211891	679.4162686583933	-386.9369905268458	7167.401294169669	667.4903773210045	-399.45235983346254	7204.9998644667185	698.9740107601151	-355.4669437929173	7193.651821555054	658.092938560211	-367.3819381861341	7189.003458845481	635.2773320973916	-384.74974458179065	7185.212208617262	628.7304532581798	-398.8608130657028	7181.466192274338	628.4633869528568	-412.77560575276107	7217.453091911244	696.0801701805867	-357.9672530172098	7213.119580032598	654.6391126155789	-370.9386108792362	7209.731337909156	629.5005522580352	-390.1929391934484	7205.965453346464	621.4857855097083	-407.3626405270526	7202.259489519005	621.1370861047828	-422.6585401780582	7226.534246433063	695.002534185152	-359.3458511172299	7230.514239199237	656.7042057531824	-371.9222662322421	7229.289200405345	634.6119486589914	-388.9941824294911	7226.5744608041305	626.7847580141439	-405.70961403048057	7223.524822970257	626.4112610745208	-420.1645456395829	7237.381807863958	695.5463791262437	-361.2498624377924	7247.6937856209815	660.4852439304045	-373.6812863037885	7249.391647179781	642.6791672640679	-387.74969445580575	7248.707342017322	636.9141537750144	-400.13445363056746	7246.7516290975545	636.5511661231935	-413.04993212245404
